<svg width="129" height="44" viewBox="0 0 129 44" fill="none" xmlns="http://www.w3.org/2000/svg">
  <path d="M32.7388 27.144C31.6508 27.144 30.6961 26.9093 29.8748 26.44C29.0641 25.9707 28.4401 25.2987 28.0028 24.424C27.5655 23.5493 27.3468 22.5253 27.3468 21.352C27.3468 20.1787 27.5655 19.16 28.0028 18.296C28.4401 17.4213 29.0641 16.7493 29.8748 16.28C30.6961 15.8107 31.6508 15.576 32.7388 15.576C33.4428 15.576 34.1041 15.6827 34.7228 15.896C35.3415 16.0987 35.8908 16.3973 36.3708 16.792C36.5095 16.8987 36.6055 17.0107 36.6588 17.128C36.7121 17.2453 36.7388 17.3893 36.7388 17.56C36.7388 17.7947 36.6748 17.992 36.5468 18.152C36.4188 18.312 36.2641 18.392 36.0828 18.392C35.8695 18.392 35.6508 18.3173 35.4268 18.168C34.9681 17.8267 34.5415 17.592 34.1468 17.464C33.7521 17.3253 33.3148 17.256 32.8348 17.256C31.7255 17.256 30.8828 17.6027 30.3068 18.296C29.7415 18.9893 29.4588 20.008 29.4588 21.352C29.4588 22.7067 29.7415 23.7307 30.3068 24.424C30.8828 25.1173 31.7255 25.464 32.8348 25.464C33.2935 25.464 33.7148 25.3947 34.0988 25.256C34.4935 25.1173 34.9361 24.8827 35.4268 24.552C35.5335 24.488 35.6401 24.4347 35.7468 24.392C35.8535 24.3493 35.9655 24.328 36.0828 24.328C36.2641 24.328 36.4188 24.408 36.5468 24.568C36.6748 24.728 36.7388 24.9253 36.7388 25.16C36.7388 25.32 36.7121 25.464 36.6588 25.592C36.6055 25.7093 36.5095 25.8213 36.3708 25.928C35.8908 26.3227 35.3415 26.6267 34.7228 26.84C34.1041 27.0427 33.4428 27.144 32.7388 27.144Z" fill="white"/>
  <path d="M43.3634 27.144C42.2648 27.144 41.3101 26.9093 40.4994 26.44C39.6994 25.9707 39.0808 25.2987 38.6434 24.424C38.2061 23.5493 37.9874 22.5253 37.9874 21.352C37.9874 20.1787 38.2008 19.16 38.6274 18.296C39.0648 17.4213 39.6888 16.7493 40.4994 16.28C41.3101 15.8107 42.2648 15.576 43.3634 15.576C44.4621 15.576 45.4114 15.8107 46.2114 16.28C47.0221 16.7493 47.6408 17.4213 48.0674 18.296C48.5048 19.16 48.7234 20.1787 48.7234 21.352C48.7234 22.5253 48.5048 23.5493 48.0674 24.424C47.6301 25.2987 47.0061 25.9707 46.1954 26.44C45.3954 26.9093 44.4514 27.144 43.3634 27.144ZM43.3634 25.496C44.3981 25.496 45.2034 25.1387 45.7794 24.424C46.3661 23.7093 46.6594 22.6853 46.6594 21.352C46.6594 20.0187 46.3661 19 45.7794 18.296C45.2034 17.5813 44.3981 17.224 43.3634 17.224C42.3181 17.224 41.5021 17.5813 40.9154 18.296C40.3394 19 40.0514 20.0187 40.0514 21.352C40.0514 22.6853 40.3394 23.7093 40.9154 24.424C41.5021 25.1387 42.3181 25.496 43.3634 25.496Z" fill="white"/>
  <path d="M59.0162 16.168C59.1868 15.8053 59.4695 15.624 59.8642 15.624C60.1308 15.624 60.3708 15.7093 60.5842 15.88C60.7975 16.0507 60.9042 16.264 60.9042 16.52C60.9042 16.6373 60.8722 16.7707 60.8082 16.92L56.3762 26.456C56.2802 26.6587 56.1308 26.8187 55.9282 26.936C55.7362 27.0427 55.5282 27.096 55.3042 27.096C55.0802 27.096 54.8668 27.0427 54.6642 26.936C54.4722 26.8187 54.3282 26.6587 54.2322 26.456L49.8162 16.92C49.7522 16.7707 49.7202 16.6427 49.7202 16.536C49.7202 16.2693 49.8268 16.0507 50.0402 15.88C50.2642 15.7093 50.5148 15.624 50.7922 15.624C50.9735 15.624 51.1388 15.672 51.2882 15.768C51.4482 15.8533 51.5708 15.9867 51.6562 16.168L55.3362 24.344L59.0162 16.168Z" fill="white"/>
  <path d="M63.5541 27.096C63.2447 27.096 62.9941 27 62.8021 26.808C62.6207 26.616 62.5301 26.3653 62.5301 26.056V16.664C62.5301 16.3547 62.6207 16.1093 62.8021 15.928C62.9941 15.736 63.2447 15.64 63.5541 15.64C63.8741 15.64 64.1247 15.736 64.3061 15.928C64.4981 16.1093 64.5941 16.3547 64.5941 16.664V26.056C64.5941 26.3653 64.4981 26.616 64.3061 26.808C64.1247 27 63.8741 27.096 63.5541 27.096Z" fill="white"/>
  <path d="M68.5221 27C68.2127 27 67.9674 26.9147 67.7861 26.744C67.6154 26.5733 67.5301 26.3333 67.5301 26.024V16.696C67.5301 16.3867 67.6154 16.1467 67.7861 15.976C67.9674 15.8053 68.2127 15.72 68.5221 15.72H71.6901C73.5354 15.72 74.9647 16.216 75.9781 17.208C77.0021 18.1893 77.5141 19.5707 77.5141 21.352C77.5141 23.144 77.0021 24.536 75.9781 25.528C74.9647 26.5093 73.5354 27 71.6901 27H68.5221ZM71.5621 25.32C74.1541 25.32 75.4501 23.9973 75.4501 21.352C75.4501 18.7173 74.1541 17.4 71.5621 17.4H69.5941V25.32H71.5621Z" fill="white"/>
  <path d="M87.8403 27.144C87.019 27.144 86.2403 27.0373 85.5043 26.824C84.779 26.6 84.187 26.3013 83.7283 25.928C83.483 25.7467 83.3603 25.4907 83.3603 25.16C83.3603 24.936 83.4243 24.744 83.5523 24.584C83.691 24.4133 83.851 24.328 84.0323 24.328C84.2243 24.328 84.443 24.4027 84.6883 24.552C85.147 24.8827 85.627 25.1227 86.1283 25.272C86.6296 25.4213 87.1843 25.496 87.7923 25.496C88.571 25.496 89.1683 25.3627 89.5843 25.096C90.0003 24.8187 90.2083 24.4187 90.2083 23.896C90.2083 23.4907 90.011 23.1813 89.6163 22.968C89.2323 22.744 88.587 22.5307 87.6803 22.328C86.7416 22.1253 85.979 21.8907 85.3923 21.624C84.8056 21.3573 84.363 21.016 84.0643 20.6C83.7656 20.184 83.6163 19.656 83.6163 19.016C83.6163 18.3547 83.803 17.7627 84.1763 17.24C84.5496 16.7173 85.067 16.312 85.7283 16.024C86.4003 15.7253 87.1523 15.576 87.9843 15.576C89.5096 15.576 90.7523 15.9813 91.7123 16.792C91.851 16.9093 91.947 17.0267 92.0003 17.144C92.0643 17.2507 92.0963 17.3893 92.0963 17.56C92.0963 17.784 92.027 17.9813 91.8883 18.152C91.7603 18.312 91.6056 18.392 91.4243 18.392C91.3176 18.392 91.2163 18.376 91.1203 18.344C91.035 18.312 90.9176 18.2533 90.7683 18.168C90.331 17.848 89.9043 17.6133 89.4883 17.464C89.083 17.304 88.5816 17.224 87.9843 17.224C87.259 17.224 86.683 17.3733 86.2563 17.672C85.8403 17.96 85.6323 18.3653 85.6323 18.888C85.6323 19.3253 85.819 19.6613 86.1923 19.896C86.5656 20.1307 87.2003 20.3493 88.0963 20.552C89.0456 20.7653 89.8136 21.0053 90.4003 21.272C90.9976 21.528 91.451 21.8587 91.7603 22.264C92.0803 22.6693 92.2403 23.176 92.2403 23.784C92.2403 24.4453 92.0536 25.032 91.6803 25.544C91.3176 26.0453 90.8003 26.44 90.1283 26.728C89.467 27.0053 88.7043 27.144 87.8403 27.144Z" fill="white"/>
  <path d="M98.5394 18.984C100.374 18.984 101.291 20.056 101.291 22.2V26.136C101.291 26.4347 101.201 26.6693 101.019 26.84C100.849 27.0107 100.609 27.096 100.299 27.096C99.9901 27.096 99.7448 27.0107 99.5634 26.84C99.3821 26.6693 99.2914 26.4347 99.2914 26.136V22.2C99.2914 21.6347 99.1741 21.224 98.9394 20.968C98.7154 20.7013 98.3581 20.568 97.8674 20.568C97.2914 20.568 96.8274 20.7493 96.4754 21.112C96.1341 21.4747 95.9634 21.96 95.9634 22.568V26.136C95.9634 26.4347 95.8728 26.6693 95.6914 26.84C95.5101 27.0107 95.2648 27.096 94.9554 27.096C94.6461 27.096 94.4008 27.0107 94.2194 26.84C94.0488 26.6693 93.9634 26.4347 93.9634 26.136V16.568C93.9634 16.2907 94.0541 16.0667 94.2354 15.896C94.4274 15.7253 94.6728 15.64 94.9714 15.64C95.2701 15.64 95.5101 15.72 95.6914 15.88C95.8728 16.04 95.9634 16.2587 95.9634 16.536V20.264C96.2301 19.848 96.5821 19.5333 97.0194 19.32C97.4674 19.096 97.9741 18.984 98.5394 18.984Z" fill="white"/>
  <path d="M104.315 27.096C104.027 27.096 103.787 27.016 103.595 26.856C103.413 26.6853 103.323 26.4453 103.323 26.136V19.96C103.323 19.6507 103.413 19.416 103.595 19.256C103.787 19.096 104.027 19.016 104.315 19.016C104.603 19.016 104.843 19.096 105.035 19.256C105.227 19.416 105.323 19.6507 105.323 19.96V26.136C105.323 26.4453 105.227 26.6853 105.035 26.856C104.843 27.016 104.603 27.096 104.315 27.096ZM104.315 17.592C103.952 17.592 103.664 17.496 103.451 17.304C103.237 17.1013 103.131 16.84 103.131 16.52C103.131 16.2 103.237 15.944 103.451 15.752C103.664 15.56 103.952 15.464 104.315 15.464C104.667 15.464 104.949 15.56 105.163 15.752C105.387 15.944 105.499 16.2 105.499 16.52C105.499 16.84 105.392 17.1013 105.179 17.304C104.965 17.496 104.677 17.592 104.315 17.592Z" fill="white"/>
  <path d="M113.577 24.856C113.759 24.856 113.903 24.9253 114.009 25.064C114.127 25.2027 114.185 25.3893 114.185 25.624C114.185 25.9547 113.988 26.232 113.593 26.456C113.231 26.6587 112.82 26.824 112.361 26.952C111.903 27.0693 111.465 27.128 111.049 27.128C109.791 27.128 108.793 26.7653 108.057 26.04C107.321 25.3147 106.953 24.3227 106.953 23.064C106.953 22.264 107.113 21.5547 107.433 20.936C107.753 20.3173 108.201 19.8373 108.777 19.496C109.364 19.1547 110.025 18.984 110.761 18.984C111.465 18.984 112.079 19.1387 112.601 19.448C113.124 19.7573 113.529 20.1947 113.817 20.76C114.105 21.3253 114.249 21.992 114.249 22.76C114.249 23.2187 114.047 23.448 113.641 23.448H108.921C108.985 24.184 109.193 24.728 109.545 25.08C109.897 25.4213 110.409 25.592 111.081 25.592C111.423 25.592 111.721 25.5493 111.977 25.464C112.244 25.3787 112.543 25.2613 112.873 25.112C113.193 24.9413 113.428 24.856 113.577 24.856ZM110.809 20.392C110.265 20.392 109.828 20.5627 109.497 20.904C109.177 21.2453 108.985 21.736 108.921 22.376H112.537C112.516 21.7253 112.356 21.2347 112.057 20.904C111.759 20.5627 111.343 20.392 110.809 20.392Z" fill="white"/>
  <path d="M116.877 27.096C116.589 27.096 116.349 27.016 116.157 26.856C115.976 26.6853 115.885 26.4453 115.885 26.136V16.584C115.885 16.2747 115.976 16.04 116.157 15.88C116.349 15.72 116.589 15.64 116.877 15.64C117.165 15.64 117.405 15.72 117.597 15.88C117.789 16.04 117.885 16.2747 117.885 16.584V26.136C117.885 26.4453 117.789 26.6853 117.597 26.856C117.405 27.016 117.165 27.096 116.877 27.096Z" fill="white"/>
  <path d="M126.476 15.64C126.774 15.64 127.02 15.7253 127.212 15.896C127.404 16.0667 127.5 16.2907 127.5 16.568V26.136C127.5 26.424 127.409 26.6533 127.228 26.824C127.046 26.9947 126.806 27.08 126.508 27.08C126.209 27.08 125.969 26.9947 125.788 26.824C125.606 26.6533 125.516 26.424 125.516 26.136V25.736C125.281 26.1733 124.94 26.5147 124.492 26.76C124.054 27.0053 123.553 27.128 122.988 27.128C122.316 27.128 121.713 26.9573 121.18 26.616C120.657 26.2747 120.246 25.7947 119.948 25.176C119.66 24.5467 119.516 23.8267 119.516 23.016C119.516 22.2053 119.66 21.496 119.948 20.888C120.246 20.28 120.657 19.8107 121.18 19.48C121.702 19.1493 122.305 18.984 122.988 18.984C123.553 18.984 124.054 19.1013 124.492 19.336C124.929 19.5707 125.265 19.9013 125.5 20.328V16.536C125.5 16.2693 125.585 16.056 125.756 15.896C125.937 15.7253 126.177 15.64 126.476 15.64ZM123.516 25.576C124.156 25.576 124.646 25.3573 124.988 24.92C125.34 24.4827 125.516 23.8587 125.516 23.048C125.516 22.2373 125.34 21.6187 124.988 21.192C124.646 20.7547 124.161 20.536 123.532 20.536C122.892 20.536 122.396 20.7493 122.044 21.176C121.692 21.6027 121.516 22.216 121.516 23.016C121.516 23.8267 121.692 24.456 122.044 24.904C122.396 25.352 122.886 25.576 123.516 25.576Z" fill="white"/>
  <path d="M10 12L2 14V20C2 26 10 30 10 30C10 30 18 26 18 20V14L10 12Z" fill="#15A3A6"/>
  <path fill-rule="evenodd" clip-rule="evenodd" d="M7 20C7 18.3431 8.34315 17 10 17C11.0923 17 12.0482 17.5837 12.5729 18.4563L14.2881 17.4271C13.4137 15.9729 11.8205 15 10 15C7.23858 15 5 17.2386 5 20C5 22.7614 7.23858 25 10 25C11.8205 25 13.4137 24.0271 14.2881 22.5729L12.5729 21.5437C12.0482 22.4163 11.0923 23 10 23C8.34315 23 7 21.6569 7 20Z" fill="white"/>
</svg>
